<svg width="41" height="40" viewBox="0 0 41 40" fill="none" xmlns="http://www.w3.org/2000/svg">
<path d="M10.3787 9.87868C10.9413 9.31607 11.7044 9 12.5 9H13.5C14.0523 9 14.5 9.44772 14.5 10V14C14.5 14.5523 14.9477 15 15.5 15H21.5C22.0523 15 22.5 14.5523 22.5 14V10C22.5 9.44772 22.9477 9 23.5 9H25.5L30.3284 13.8284C31.0786 14.5786 31.5 15.596 31.5 16.6569V28C31.5 28.7956 31.1839 29.5587 30.6213 30.1213C30.0587 30.6839 29.2956 31 28.5 31H12.5C10.8431 31 9.5 29.6569 9.5 28V12C9.5 11.2044 9.81607 10.4413 10.3787 9.87868Z" fill="url(#paint0_linear_2019_42)" fill-opacity="0.24"/>
<path d="M9.5 18V12C9.5 11.2044 9.81607 10.4413 10.3787 9.87868C10.9413 9.31607 11.7044 9 12.5 9H13.5C14.0523 9 14.5 9.44772 14.5 10V14C14.5 14.5523 14.9477 15 15.5 15H21.5C22.0523 15 22.5 14.5523 22.5 14V10C22.5 9.44772 22.9477 9 23.5 9H24.6716C25.202 9 25.7107 9.21071 26.0858 9.58579L30.3284 13.8284C31.0786 14.5786 31.5 15.596 31.5 16.6569V21V28C31.5 28.7956 31.1839 29.5587 30.6213 30.1213C30.0587 30.6839 29.2956 31 28.5 31H23.5" stroke="white" stroke-linecap="round" stroke-linejoin="round"/>
<path d="M9.5 29.25C13.75 29.25 13.75 24 13.75 24C13.75 24 13.75 29.25 18 29.25C13.75 29.25 13.75 34.5 13.75 34.5C13.75 34.5 13.75 29.25 9.5 29.25Z" fill="white"/>
<path d="M5.5 24.25C7.75 24.25 7.75 22 7.75 22C7.75 22 7.75 24.25 10 24.25C7.75 24.25 7.75 26.5 7.75 26.5C7.75 26.5 7.75 24.25 5.5 24.25Z" fill="white"/>
<path d="M7.5 32.5H7.51M18 22H18.01M18 34.5H18.01M13.75 24C13.75 24 13.75 29.25 9.5 29.25C13.75 29.25 13.75 34.5 13.75 34.5C13.75 34.5 13.75 29.25 18 29.25C13.75 29.25 13.75 24 13.75 24ZM7.75 22C7.75 22 7.75 24.25 5.5 24.25C7.75 24.25 7.75 26.5 7.75 26.5C7.75 26.5 7.75 24.25 10 24.25C7.75 24.25 7.75 22 7.75 22Z" stroke="white" stroke-width="1.5" stroke-linecap="round" stroke-linejoin="round"/>
<path opacity="0.32" d="M20 9H19C18.7239 9 18.5 9.22386 18.5 9.5V12.5C18.5 12.7761 18.7239 13 19 13H20C20.2761 13 20.5 12.7761 20.5 12.5V9.5C20.5 9.22386 20.2761 9 20 9Z" fill="white"/>
<defs>
<linearGradient id="paint0_linear_2019_42" x1="20.5" y1="9" x2="20.5" y2="31" gradientUnits="userSpaceOnUse">
<stop stop-color="white" stop-opacity="0"/>
<stop offset="1" stop-color="white"/>
</linearGradient>
</defs>
</svg>
