<svg width="41" height="40" viewBox="0 0 41 40" fill="none" xmlns="http://www.w3.org/2000/svg">
<path d="M8.5 5H32.5C33.2956 5 34.0587 5.31607 34.6213 5.87868C35.1839 6.44129 35.5 7.20435 35.5 8V27C35.5 27.7956 35.1839 28.5587 34.6213 29.1213C34.0587 29.6839 33.2956 30 32.5 30H27.2101C27.3987 29.3663 27.5 28.695 27.5 28C27.5 24.134 24.366 21 20.5 21C16.634 21 13.5 24.134 13.5 28C13.5 28.695 13.6013 29.3663 13.7899 30H8.5C7.70435 30 6.94129 29.6839 6.37868 29.1213C5.81607 28.5587 5.5 27.7956 5.5 27V8C5.5 7.20435 5.81607 6.44129 6.37868 5.87868C6.94129 5.31607 7.70435 5 8.5 5Z" fill="url(#paint0_linear_2019_67)" fill-opacity="0.24"/>
<path d="M8.5 30C7.70435 30 6.94129 29.6839 6.37868 29.1213C5.81607 28.5587 5.5 27.7956 5.5 27V8C5.5 7.20435 5.81607 6.44129 6.37868 5.87868C6.94129 5.31607 7.70435 5 8.5 5H32.5C33.2956 5 34.0587 5.31607 34.6213 5.87868C35.1839 6.44129 35.5 7.20435 35.5 8V27C35.5 27.7956 35.1839 28.5587 34.6213 29.1213C34.0587 29.6839 33.2956 30 32.5 30" stroke="white" stroke-linecap="round" stroke-linejoin="round"/>
<g opacity="0.4">
<path d="M26.026 16.5791C26.4988 16.8597 27.0353 17 27.6356 17C28.0151 17 28.3665 16.9451 28.69 16.8353C29.0166 16.7224 29.3043 16.5654 29.5531 16.3641C29.805 16.1597 30.0119 15.9187 30.1736 15.6412C30.3354 15.3606 30.4442 15.051 30.5002 14.7124H29.4458C29.3992 14.932 29.3198 15.1257 29.2079 15.2935C29.099 15.4582 28.9637 15.5985 28.802 15.7144C28.6402 15.8303 28.4614 15.9172 28.2655 15.9752C28.0695 16.0331 27.8627 16.0621 27.645 16.0621C27.2468 16.0621 26.8891 15.9645 26.5719 15.7693C26.2546 15.5741 26.0043 15.2874 25.8208 14.9092C25.6373 14.5279 25.5455 14.0597 25.5455 13.5046C25.5455 12.9525 25.6373 12.4858 25.8208 12.1046C26.0043 11.7203 26.2546 11.4305 26.5719 11.2353C26.8891 11.037 27.2468 10.9379 27.645 10.9379C27.8658 10.9379 28.0742 10.9684 28.2701 11.0294C28.4692 11.0874 28.648 11.1758 28.8066 11.2948C28.9684 11.4107 29.1037 11.554 29.2125 11.7248C29.3245 11.8926 29.4023 12.0878 29.4458 12.3105H30.5002C30.4411 11.9475 30.3276 11.6227 30.1596 11.3359C29.9948 11.0492 29.7848 10.8068 29.5298 10.6085C29.2747 10.4102 28.9855 10.2593 28.662 10.1556C28.3417 10.0519 27.9995 10 27.6356 10C27.0384 10 26.5035 10.1403 26.0307 10.4209C25.5579 10.7015 25.1863 11.1041 24.9157 11.6288C24.6451 12.1503 24.5098 12.7756 24.5098 13.5046C24.5098 14.2275 24.6435 14.8512 24.911 15.3758C25.1816 15.8974 25.5533 16.2985 26.026 16.5791Z" fill="white"/>
<path fill-rule="evenodd" clip-rule="evenodd" d="M12.25 15.1014L11.615 16.9086H10.5L13.0053 10.0916H14.2137L16.7097 16.9086H15.5993L14.9614 15.1014H12.25ZM13.6305 11.3315L14.6577 14.2413H12.5522L13.5745 11.3315H13.6305Z" fill="white"/>
<path fill-rule="evenodd" clip-rule="evenodd" d="M22.0883 16.6661C21.743 16.8278 21.2998 16.9086 20.7586 16.9086H18.0947V10.0916H20.6467C21.1381 10.0916 21.5455 10.1709 21.869 10.3295C22.1925 10.4881 22.4335 10.7032 22.5922 10.9746C22.7539 11.243 22.8348 11.545 22.8348 11.8805C22.8348 12.1642 22.7803 12.4036 22.6715 12.5988C22.5657 12.794 22.4242 12.9496 22.2469 13.0655C22.0696 13.1814 21.8752 13.2668 21.6637 13.3217V13.3857C21.8939 13.3979 22.1194 13.4711 22.3402 13.6053C22.561 13.7395 22.743 13.9302 22.8861 14.1772C23.0323 14.4212 23.1053 14.7201 23.1053 15.074C23.1053 15.4217 23.0214 15.7343 22.8534 16.0119C22.6886 16.2864 22.4335 16.5045 22.0883 16.6661ZM21.4258 14.0034C21.2205 13.8966 20.9795 13.8432 20.7026 13.8432H19.1444V16.0302H20.656C21.1599 16.0302 21.5207 15.9341 21.7384 15.7419C21.9561 15.5498 22.065 15.3103 22.065 15.0236C22.065 14.8071 22.009 14.6103 21.897 14.4334C21.7881 14.2535 21.6311 14.1101 21.4258 14.0034ZM21.5004 11.2583C21.3014 11.0661 20.995 10.97 20.5813 10.97H19.1444V13.0426H20.5534C20.7866 13.0426 20.9981 12.9984 21.1879 12.9099C21.3776 12.8215 21.5269 12.6964 21.6357 12.5347C21.7477 12.37 21.8037 12.1794 21.8037 11.9628C21.8037 11.6822 21.7026 11.4474 21.5004 11.2583Z" fill="white"/>
</g>
<path d="M27.5 28C27.5 29.7135 26.8843 31.2832 25.8621 32.5C24.578 34.0285 22.6525 35 20.5 35C16.634 35 13.5 31.866 13.5 28C13.5 24.134 16.634 21 20.5 21C24.366 21 27.5 24.134 27.5 28Z" fill="url(#paint1_linear_2019_67)" fill-opacity="0.24"/>
<path d="M25.8621 32.5C26.8843 31.2832 27.5 29.7135 27.5 28C27.5 24.134 24.366 21 20.5 21C16.634 21 13.5 24.134 13.5 28C13.5 31.866 16.634 35 20.5 35C22.6525 35 24.578 34.0285 25.8621 32.5ZM25.8621 32.5L29.3621 36" stroke="white" stroke-linecap="round" stroke-linejoin="round"/>
<path d="M17.5 28L19.5 30L23.5 26" stroke="white" stroke-linecap="round" stroke-linejoin="round"/>
<defs>
<linearGradient id="paint0_linear_2019_67" x1="20.5" y1="5" x2="20.5" y2="30" gradientUnits="userSpaceOnUse">
<stop stop-color="white" stop-opacity="0"/>
<stop offset="1" stop-color="white"/>
</linearGradient>
<linearGradient id="paint1_linear_2019_67" x1="20.5" y1="21" x2="20.5" y2="35" gradientUnits="userSpaceOnUse">
<stop stop-color="white" stop-opacity="0"/>
<stop offset="1" stop-color="white"/>
</linearGradient>
</defs>
</svg>
