<svg width="35" height="29" viewBox="0 0 35 29" fill="none" xmlns="http://www.w3.org/2000/svg">
<g clip-path="url(#clip0_2019_55)">
<path d="M15 22.1014H31.285C32.3021 22.1014 33.1267 21.2768 33.1267 20.2596V5.52538C33.1267 4.50819 32.3021 3.68359 31.285 3.68359H9.18358C8.16639 3.68359 7.3418 4.50819 7.3418 5.52538V10" stroke="white" stroke-linecap="round" stroke-linejoin="round"/>
<path d="M22.997 25.7849L22.5366 22.1013H17.9321L17.4717 25.7849H22.997Z" fill="white"/>
<path d="M26.6806 25.7849H13.7881" stroke="white" stroke-linecap="round" stroke-linejoin="round"/>
<path d="M31.5 4H9.5C8.39543 4 7.5 4.89543 7.5 6V20C7.5 21.1046 8.39543 22 9.5 22H31.5C32.6046 22 33.5 21.1046 33.5 20V6C33.5 4.89543 32.6046 4 31.5 4Z" fill="url(#paint0_linear_2019_55)" fill-opacity="0.24"/>
<path d="M20.1892 13.3805C20.6243 13.3805 20.977 13.0278 20.977 12.5927C20.977 12.1576 20.6243 11.8049 20.1892 11.8049C19.7541 11.8049 19.4014 12.1576 19.4014 12.5927C19.4014 13.0278 19.7541 13.3805 20.1892 13.3805Z" fill="white"/>
<path d="M23.528 13.3805C23.9631 13.3805 24.3158 13.0278 24.3158 12.5927C24.3158 12.1576 23.9631 11.8049 23.528 11.8049C23.0929 11.8049 22.7402 12.1576 22.7402 12.5927C22.7402 13.0278 23.0929 13.3805 23.528 13.3805Z" fill="white"/>
<path d="M16.8483 13.3805C17.2834 13.3805 17.6361 13.0278 17.6361 12.5927C17.6361 12.1576 17.2834 11.8049 16.8483 11.8049C16.4132 11.8049 16.0605 12.1576 16.0605 12.5927C16.0605 13.0278 16.4132 13.3805 16.8483 13.3805Z" fill="white"/>
<path d="M16.4375 16.6562L11.6875 12.5L16.4375 8.34375M23.5625 16.6562L28.3125 12.5L23.5625 8.34375" stroke="white" stroke-linecap="round" stroke-linejoin="round"/>
<path d="M5.5 18.25C9.75 18.25 9.75 13 9.75 13C9.75 13 9.75 18.25 14 18.25C9.75 18.25 9.75 23.5 9.75 23.5C9.75 23.5 9.75 18.25 5.5 18.25Z" fill="white"/>
<path d="M1.5 13.25C3.75 13.25 3.75 11 3.75 11C3.75 11 3.75 13.25 6 13.25C3.75 13.25 3.75 15.5 3.75 15.5C3.75 15.5 3.75 13.25 1.5 13.25Z" fill="white"/>
<path d="M3.5 21.5H3.51M14 23.5H14.01M9.75 13C9.75 13 9.75 18.25 5.5 18.25C9.75 18.25 9.75 23.5 9.75 23.5C9.75 23.5 9.75 18.25 14 18.25C9.75 18.25 9.75 13 9.75 13ZM3.75 11C3.75 11 3.75 13.25 1.5 13.25C3.75 13.25 3.75 15.5 3.75 15.5C3.75 15.5 3.75 13.25 6 13.25C3.75 13.25 3.75 11 3.75 11Z" stroke="white" stroke-width="1.5" stroke-linecap="round" stroke-linejoin="round"/>
</g>
<defs>
<linearGradient id="paint0_linear_2019_55" x1="20.5" y1="4" x2="20.5" y2="22" gradientUnits="userSpaceOnUse">
<stop stop-color="white" stop-opacity="0"/>
<stop offset="1" stop-color="white"/>
</linearGradient>
<clipPath id="clip0_2019_55">
<rect width="34" height="29" fill="white" transform="translate(0.5)"/>
</clipPath>
</defs>
</svg>
