<svg width="112" height="22" viewBox="0 0 112 22" fill="none" xmlns="http://www.w3.org/2000/svg">
<rect width="22" height="22" rx="4.4" fill="url(#paint0_linear_12_10)"/>
<path d="M4.90545 12.5263C4.76172 12.5268 4.6208 12.4865 4.49906 12.4101C4.37733 12.3337 4.27977 12.2243 4.21773 12.0947C4.15569 11.965 4.13171 11.8204 4.14858 11.6777C4.16544 11.5349 4.22247 11.3999 4.31302 11.2883L11.8323 3.54113C11.8887 3.47603 11.9656 3.43203 12.0503 3.41637C12.135 3.4007 12.2225 3.4143 12.2985 3.45493C12.3744 3.49556 12.4343 3.5608 12.4683 3.63995C12.5023 3.7191 12.5084 3.80746 12.4855 3.89051L11.0272 8.46287C10.9842 8.57795 10.9698 8.70175 10.9851 8.82365C11.0005 8.94554 11.0452 9.06189 11.1154 9.16272C11.1856 9.26354 11.2792 9.34583 11.3882 9.40252C11.4972 9.45922 11.6183 9.48863 11.7412 9.48823H17.0579C17.2016 9.48774 17.3425 9.52804 17.4643 9.60445C17.586 9.68086 17.6836 9.79025 17.7456 9.9199C17.8076 10.0496 17.8316 10.1941 17.8147 10.3369C17.7979 10.4796 17.7409 10.6146 17.6503 10.7263L10.131 18.4734C10.0746 18.5385 9.99773 18.5825 9.91302 18.5982C9.82832 18.6139 9.74081 18.6003 9.66485 18.5596C9.58889 18.519 9.529 18.4538 9.49501 18.3746C9.46102 18.2955 9.45496 18.2071 9.4778 18.1241L10.9361 13.5517C10.9791 13.4366 10.9935 13.3128 10.9782 13.1909C10.9628 13.069 10.9181 12.9527 10.8479 12.8518C10.7777 12.751 10.6841 12.6687 10.5751 12.612C10.4661 12.5553 10.345 12.5259 10.2221 12.5263H4.90545Z" fill="#D9D9D9" stroke="black" stroke-width="1.51905" stroke-linecap="round" stroke-linejoin="round"/>
<path d="M39.408 12.392C39.408 12.648 39.392 12.9147 39.36 13.192H33.168C33.2107 13.7467 33.3867 14.1733 33.696 14.472C34.016 14.76 34.4053 14.904 34.864 14.904C35.5467 14.904 36.0213 14.616 36.288 14.04H39.2C39.0507 14.6267 38.7787 15.1547 38.384 15.624C38 16.0933 37.5147 16.4613 36.928 16.728C36.3413 16.9947 35.6853 17.128 34.96 17.128C34.0853 17.128 33.3067 16.9413 32.624 16.568C31.9413 16.1947 31.408 15.6613 31.024 14.968C30.64 14.2747 30.448 13.464 30.448 12.536C30.448 11.608 30.6347 10.7973 31.008 10.104C31.392 9.41067 31.9253 8.87733 32.608 8.504C33.2907 8.13067 34.0747 7.944 34.96 7.944C35.824 7.944 36.592 8.12533 37.264 8.488C37.936 8.85067 38.4587 9.368 38.832 10.04C39.216 10.712 39.408 11.496 39.408 12.392ZM36.608 11.672C36.608 11.2027 36.448 10.8293 36.128 10.552C35.808 10.2747 35.408 10.136 34.928 10.136C34.4693 10.136 34.08 10.2693 33.76 10.536C33.4507 10.8027 33.2587 11.1813 33.184 11.672H36.608ZM40.3074 12.52C40.3074 11.6027 40.478 10.7973 40.8194 10.104C41.1714 9.41067 41.646 8.87733 42.2434 8.504C42.8407 8.13067 43.5074 7.944 44.2434 7.944C44.8727 7.944 45.422 8.072 45.8914 8.328C46.3714 8.584 46.7394 8.92 46.9954 9.336V8.072H49.7314V17H46.9954V15.736C46.7287 16.152 46.3554 16.488 45.8754 16.744C45.406 17 44.8567 17.128 44.2274 17.128C43.502 17.128 42.8407 16.9413 42.2434 16.568C41.646 16.184 41.1714 15.6453 40.8194 14.952C40.478 14.248 40.3074 13.4373 40.3074 12.52ZM46.9954 12.536C46.9954 11.8533 46.8034 11.3147 46.4194 10.92C46.046 10.5253 45.5874 10.328 45.0434 10.328C44.4994 10.328 44.0354 10.5253 43.6514 10.92C43.278 11.304 43.0914 11.8373 43.0914 12.52C43.0914 13.2027 43.278 13.7467 43.6514 14.152C44.0354 14.5467 44.4994 14.744 45.0434 14.744C45.5874 14.744 46.046 14.5467 46.4194 14.152C46.8034 13.7573 46.9954 13.2187 46.9954 12.536ZM55.3428 17.128C54.5641 17.128 53.8708 16.9947 53.2628 16.728C52.6548 16.4613 52.1748 16.0987 51.8228 15.64C51.4708 15.1707 51.2734 14.648 51.2308 14.072H53.9348C53.9668 14.3813 54.1108 14.632 54.3668 14.824C54.6228 15.016 54.9374 15.112 55.3108 15.112C55.6521 15.112 55.9134 15.048 56.0948 14.92C56.2868 14.7813 56.3828 14.6053 56.3828 14.392C56.3828 14.136 56.2494 13.9493 55.9828 13.832C55.7161 13.704 55.2841 13.5653 54.6868 13.416C54.0468 13.2667 53.5134 13.112 53.0868 12.952C52.6601 12.7813 52.2921 12.52 51.9828 12.168C51.6734 11.8053 51.5188 11.32 51.5188 10.712C51.5188 10.2 51.6574 9.736 51.9348 9.32C52.2228 8.89333 52.6388 8.55733 53.1828 8.312C53.7374 8.06667 54.3934 7.944 55.1508 7.944C56.2708 7.944 57.1508 8.22133 57.7908 8.776C58.4414 9.33067 58.8148 10.0667 58.9108 10.984H56.3828C56.3401 10.6747 56.2014 10.4293 55.9668 10.248C55.7428 10.0667 55.4441 9.976 55.0708 9.976C54.7508 9.976 54.5054 10.04 54.3348 10.168C54.1641 10.2853 54.0788 10.4507 54.0788 10.664C54.0788 10.92 54.2121 11.112 54.4788 11.24C54.7561 11.368 55.1828 11.496 55.7588 11.624C56.4201 11.7947 56.9588 11.9653 57.3748 12.136C57.7908 12.296 58.1534 12.5627 58.4628 12.936C58.7828 13.2987 58.9481 13.7893 58.9588 14.408C58.9588 14.9307 58.8094 15.4 58.5108 15.816C58.2228 16.2213 57.8014 16.5413 57.2468 16.776C56.7028 17.0107 56.0681 17.128 55.3428 17.128ZM69.0486 12.392C69.0486 12.648 69.0326 12.9147 69.0006 13.192H62.8086C62.8513 13.7467 63.0273 14.1733 63.3366 14.472C63.6566 14.76 64.046 14.904 64.5046 14.904C65.1873 14.904 65.662 14.616 65.9286 14.04H68.8406C68.6913 14.6267 68.4193 15.1547 68.0246 15.624C67.6406 16.0933 67.1553 16.4613 66.5686 16.728C65.982 16.9947 65.326 17.128 64.6006 17.128C63.726 17.128 62.9473 16.9413 62.2646 16.568C61.582 16.1947 61.0486 15.6613 60.6646 14.968C60.2806 14.2747 60.0886 13.464 60.0886 12.536C60.0886 11.608 60.2753 10.7973 60.6486 10.104C61.0326 9.41067 61.566 8.87733 62.2486 8.504C62.9313 8.13067 63.7153 7.944 64.6006 7.944C65.4646 7.944 66.2326 8.12533 66.9046 8.488C67.5766 8.85067 68.0993 9.368 68.4726 10.04C68.8566 10.712 69.0486 11.496 69.0486 12.392ZM66.2486 11.672C66.2486 11.2027 66.0886 10.8293 65.7686 10.552C65.4486 10.2747 65.0486 10.136 64.5686 10.136C64.11 10.136 63.7206 10.2693 63.4006 10.536C63.0913 10.8027 62.8993 11.1813 62.8246 11.672H66.2486ZM73.228 9.336C73.4947 8.92 73.8627 8.584 74.332 8.328C74.8013 8.072 75.3507 7.944 75.98 7.944C76.716 7.944 77.3827 8.13067 77.98 8.504C78.5773 8.87733 79.0467 9.41067 79.388 10.104C79.74 10.7973 79.916 11.6027 79.916 12.52C79.916 13.4373 79.74 14.248 79.388 14.952C79.0467 15.6453 78.5773 16.184 77.98 16.568C77.3827 16.9413 76.716 17.128 75.98 17.128C75.3613 17.128 74.812 17 74.332 16.744C73.8627 16.488 73.4947 16.1573 73.228 15.752V21.256H70.492V8.072H73.228V9.336ZM77.132 12.52C77.132 11.8373 76.94 11.304 76.556 10.92C76.1827 10.5253 75.7187 10.328 75.164 10.328C74.62 10.328 74.156 10.5253 73.772 10.92C73.3987 11.3147 73.212 11.8533 73.212 12.536C73.212 13.2187 73.3987 13.7573 73.772 14.152C74.156 14.5467 74.62 14.744 75.164 14.744C75.708 14.744 76.172 14.5467 76.556 14.152C76.94 13.7467 77.132 13.2027 77.132 12.52ZM80.8074 12.52C80.8074 11.6027 80.978 10.7973 81.3194 10.104C81.6714 9.41067 82.146 8.87733 82.7434 8.504C83.3407 8.13067 84.0074 7.944 84.7434 7.944C85.3727 7.944 85.922 8.072 86.3914 8.328C86.8714 8.584 87.2394 8.92 87.4954 9.336V8.072H90.2314V17H87.4954V15.736C87.2287 16.152 86.8554 16.488 86.3754 16.744C85.906 17 85.3567 17.128 84.7274 17.128C84.002 17.128 83.3407 16.9413 82.7434 16.568C82.146 16.184 81.6714 15.6453 81.3194 14.952C80.978 14.248 80.8074 13.4373 80.8074 12.52ZM87.4954 12.536C87.4954 11.8533 87.3034 11.3147 86.9194 10.92C86.546 10.5253 86.0874 10.328 85.5434 10.328C84.9994 10.328 84.5354 10.5253 84.1514 10.92C83.778 11.304 83.5914 11.8373 83.5914 12.52C83.5914 13.2027 83.778 13.7467 84.1514 14.152C84.5354 14.5467 84.9994 14.744 85.5434 14.744C86.0874 14.744 86.546 14.5467 86.9194 14.152C87.3034 13.7573 87.4954 13.2187 87.4954 12.536ZM95.6028 7.944C96.2321 7.944 96.7814 8.072 97.2508 8.328C97.7308 8.584 98.0988 8.92 98.3548 9.336V8.072H101.091V16.984C101.091 17.8053 100.925 18.5467 100.595 19.208C100.275 19.88 99.7788 20.4133 99.1068 20.808C98.4454 21.2027 97.6188 21.4 96.6268 21.4C95.3041 21.4 94.2321 21.0853 93.4108 20.456C92.5894 19.8373 92.1201 18.9947 92.0028 17.928H94.7068C94.7921 18.2693 94.9948 18.536 95.3148 18.728C95.6348 18.9307 96.0294 19.032 96.4988 19.032C97.0641 19.032 97.5121 18.8667 97.8428 18.536C98.1841 18.216 98.3548 17.6987 98.3548 16.984V15.72C98.0881 16.136 97.7201 16.4773 97.2508 16.744C96.7814 17 96.2321 17.128 95.6028 17.128C94.8668 17.128 94.2001 16.9413 93.6028 16.568C93.0054 16.184 92.5308 15.6453 92.1788 14.952C91.8374 14.248 91.6668 13.4373 91.6668 12.52C91.6668 11.6027 91.8374 10.7973 92.1788 10.104C92.5308 9.41067 93.0054 8.87733 93.6028 8.504C94.2001 8.13067 94.8668 7.944 95.6028 7.944ZM98.3548 12.536C98.3548 11.8533 98.1628 11.3147 97.7788 10.92C97.4054 10.5253 96.9468 10.328 96.4028 10.328C95.8588 10.328 95.3948 10.5253 95.0108 10.92C94.6374 11.304 94.4508 11.8373 94.4508 12.52C94.4508 13.2027 94.6374 13.7467 95.0108 14.152C95.3948 14.5467 95.8588 14.744 96.4028 14.744C96.9468 14.744 97.4054 14.5467 97.7788 14.152C98.1628 13.7573 98.3548 13.2187 98.3548 12.536ZM111.486 12.392C111.486 12.648 111.47 12.9147 111.438 13.192H105.246C105.289 13.7467 105.465 14.1733 105.774 14.472C106.094 14.76 106.483 14.904 106.942 14.904C107.625 14.904 108.099 14.616 108.366 14.04H111.278C111.129 14.6267 110.857 15.1547 110.462 15.624C110.078 16.0933 109.593 16.4613 109.006 16.728C108.419 16.9947 107.763 17.128 107.038 17.128C106.163 17.128 105.385 16.9413 104.702 16.568C104.019 16.1947 103.486 15.6613 103.102 14.968C102.718 14.2747 102.526 13.464 102.526 12.536C102.526 11.608 102.713 10.7973 103.086 10.104C103.47 9.41067 104.003 8.87733 104.686 8.504C105.369 8.13067 106.153 7.944 107.038 7.944C107.902 7.944 108.67 8.12533 109.342 8.488C110.014 8.85067 110.537 9.368 110.91 10.04C111.294 10.712 111.486 11.496 111.486 12.392ZM108.686 11.672C108.686 11.2027 108.526 10.8293 108.206 10.552C107.886 10.2747 107.486 10.136 107.006 10.136C106.547 10.136 106.158 10.2693 105.838 10.536C105.529 10.8027 105.337 11.1813 105.262 11.672H108.686Z" fill="black"/>
<defs>
<linearGradient id="paint0_linear_12_10" x1="22" y1="0" x2="0" y2="22" gradientUnits="userSpaceOnUse">
<stop stop-color="#F8ACFF"/>
<stop offset="1" stop-color="#FFF95B"/>
</linearGradient>
</defs>
</svg>
