<svg width="32" height="32" viewBox="0 0 32 32" fill="none" xmlns="http://www.w3.org/2000/svg">
<path d="M14.4016 23.1996C19.2617 23.1996 23.2016 19.2597 23.2016 14.3996C23.2016 9.5395 19.2617 5.59961 14.4016 5.59961C9.54146 5.59961 5.60156 9.5395 5.60156 14.3996C5.60156 19.2597 9.54146 23.1996 14.4016 23.1996Z" fill="url(#paint0_linear_2019_88)" fill-opacity="0.24" stroke="white" stroke-linecap="round" stroke-linejoin="round"/>
<path opacity="0.2" d="M3.20312 5.60078C3.20312 5.38861 3.28741 5.18513 3.43744 5.0351C3.58747 4.88507 3.79095 4.80078 4.00313 4.80078H14.4031C14.6153 4.80078 14.8188 4.88507 14.9688 5.0351C15.1188 5.18513 15.2031 5.38861 15.2031 5.60078C15.2031 5.81295 15.1188 6.01644 14.9688 6.16647C14.8188 6.3165 14.6153 6.40078 14.4031 6.40078H4.00313C3.79095 6.40078 3.58747 6.3165 3.43744 6.16647C3.28741 6.01644 3.20312 5.81295 3.20312 5.60078ZM3.20312 26.4008C3.20312 26.1886 3.28741 25.9851 3.43744 25.8351C3.58747 25.6851 3.79095 25.6008 4.00313 25.6008H14.4031C14.6153 25.6008 14.8188 25.6851 14.9688 25.8351C15.1188 25.9851 15.2031 26.1886 15.2031 26.4008C15.2031 26.613 15.1188 26.8164 14.9688 26.9665C14.8188 27.1165 14.6153 27.2008 14.4031 27.2008H4.00313C3.79095 27.2008 3.58747 27.1165 3.43744 26.9665C3.28741 26.8164 3.20312 26.613 3.20312 26.4008Z" fill="white"/>
<path d="M22.4585 20.8195L21.639 20L20 21.639L20.8195 22.4585L22.4585 20.8195ZM24.0071 25.6461C24.114 25.7568 24.2419 25.8451 24.3834 25.9059C24.5248 25.9666 24.6769 25.9986 24.8308 26C24.9847 26.0013 25.1373 25.972 25.2798 25.9137C25.4222 25.8554 25.5517 25.7693 25.6605 25.6605C25.7693 25.5517 25.8554 25.4222 25.9137 25.2798C25.972 25.1373 26.0013 24.9847 26 24.8308C25.9986 24.6769 25.9666 24.5248 25.9059 24.3834C25.8451 24.2419 25.7568 24.114 25.6461 24.0071L24.0071 25.6461ZM20.8195 22.4585L24.0071 25.6461L25.6461 24.0071L22.4585 20.8195L20.8195 22.4585Z" fill="white"/>
<g opacity="0.2">
<path d="M15.2031 23.36C14.01 23.4816 12.8047 23.3326 11.6771 22.924C10.5495 22.5154 9.52862 21.8577 8.69033 21H4.00313C3.79095 21 3.58747 21.0843 3.43744 21.2343C3.28741 21.3843 3.20313 21.5878 3.20312 21.8V23.4C3.20312 23.6122 3.28741 23.8157 3.43744 23.9657C3.58747 24.1157 3.79095 24.2 4.00313 24.2H14.4031C14.6153 24.2 14.8188 24.1157 14.9688 23.9657C15.1188 23.8157 15.2031 23.6122 15.2031 23.4V23.36Z" fill="white"/>
</g>
<path d="M7.85913 17.6004H13.4031C13.6153 17.6004 13.8188 17.5161 13.9688 17.3661C14.1188 17.216 14.2031 17.0126 14.2031 16.8004V15.2004C14.2031 14.9882 14.1188 14.7847 13.9688 14.6347C13.8188 14.4847 13.6153 14.4004 13.4031 14.4004H7.00313C7.00313 15.566 7.31512 16.6588 7.85913 17.6004ZM6.06872 17.6004C5.62825 16.5911 5.40164 15.5016 5.40315 14.4004H3.00313C2.79095 14.4004 2.58747 14.4847 2.43744 14.6347C2.28741 14.7847 2.20313 14.9882 2.20312 15.2004V16.8004C2.20312 17.0126 2.28741 17.216 2.43744 17.3661C2.58747 17.5161 2.79095 17.6004 3.00313 17.6004H6.06872Z" fill="white"/>
<path opacity="0.2" fill-rule="evenodd" clip-rule="evenodd" d="M7.46873 12.0008H13.4031C13.6153 12.0008 13.8188 11.9165 13.9688 11.7665C14.1188 11.6164 14.2031 11.413 14.2031 11.2008V9.60078C14.2031 9.38861 14.1188 9.18513 13.9688 9.0351C13.8188 8.88507 13.6153 8.80078 13.4031 8.80078H10.3023C9.01994 9.5126 8.02052 10.6418 7.46873 12.0008ZM5.76953 12.0008C6.14817 10.7976 6.80609 9.70108 7.68952 8.80078H3.00313C2.79095 8.80078 2.58747 8.88507 2.43744 9.0351C2.28741 9.18513 2.20313 9.38861 2.20312 9.60078V11.2008C2.20312 11.413 2.28741 11.6164 2.43744 11.7665C2.58747 11.9165 2.79095 12.0008 3.00313 12.0008H5.76953Z" fill="white"/>
<defs>
<linearGradient id="paint0_linear_2019_88" x1="14.4016" y1="5.59961" x2="14.4016" y2="23.1996" gradientUnits="userSpaceOnUse">
<stop stop-color="white" stop-opacity="0"/>
<stop offset="1" stop-color="white"/>
</linearGradient>
</defs>
</svg>
