<?xml version="1.0" encoding="UTF-8"?>
<svg xmlns="http://www.w3.org/2000/svg" width="811" height="378" viewBox="0 0 811 378" fill="none">
  <g clip-path="url(#clip0_235_14)">
    <mask id="mask0_235_14" style="mask-type:alpha" maskUnits="userSpaceOnUse" x="0" y="0" width="811" height="378">
      <rect width="811" height="378" fill="url(#paint0_linear_235_14)"></rect>
    </mask>
    <g mask="url(#mask0_235_14)">
      <path fill-rule="evenodd" clip-rule="evenodd" d="M405.5 14C407.258 14 408.714 12.7036 408.962 11.0145C408.987 10.8466 409 10.6748 409 10.5C409 10.3353 408.989 10.1732 408.967 10.0145C408.73 8.31129 407.268 7 405.5 7C403.732 7 402.27 8.31129 402.033 10.0145C402.011 10.1732 402 10.3353 402 10.5C402 10.6748 402.013 10.8466 402.038 11.0145C402.286 12.7036 403.742 14 405.5 14ZM405.5 6C407.825 6 409.737 7.76258 409.975 10.0242C517.803 11.1901 615.534 54.4422 687.518 124.13C688.312 123.427 689.356 123 690.5 123C692.985 123 695 125.015 695 127.5C695 128.627 694.586 129.657 693.901 130.447C766.3 203.692 811 304.376 811 415.5C811 639.451 629.451 821 405.5 821C181.549 821 0 639.451 0 415.5C0 304.885 44.291 204.614 116.106 131.455C115.417 130.664 115 129.631 115 128.5C115 126.015 117.015 124 119.5 124C120.637 124 121.675 124.421 122.467 125.116C194.546 54.8506 292.689 11.1956 401.025 10.0242C401.263 7.76258 403.175 6 405.5 6ZM121.749 125.818C121.141 125.307 120.356 125 119.5 125C117.567 125 116 126.567 116 128.5C116 129.352 116.304 130.133 116.81 130.74C117.025 130.997 117.275 131.223 117.554 131.41C118.11 131.782 118.78 132 119.5 132C121.433 132 123 130.433 123 128.5C123 127.784 122.785 127.119 122.416 126.564C122.23 126.285 122.005 126.033 121.749 125.818ZM116.843 132.132C117.587 132.678 118.506 133 119.5 133C121.985 133 124 130.985 124 128.5C124 127.512 123.681 126.598 123.141 125.855C195.044 55.7507 292.952 12.1943 401.03 11.0242C401.29 13.2625 403.192 15 405.5 15C407.808 15 409.71 13.2625 409.97 11.0242C517.541 12.1889 615.039 55.3436 686.847 124.872C686.314 125.611 686 126.519 686 127.5C686 129.985 688.015 132 690.5 132C691.498 132 692.42 131.675 693.166 131.126C765.401 204.192 810 304.638 810 415.5C810 638.899 628.899 820 405.5 820C182.101 820 1 638.899 1 415.5C1 305.146 45.1913 205.113 116.843 132.132ZM688.238 124.829C688.848 124.312 689.638 124 690.5 124C692.433 124 694 125.567 694 127.5C694 128.349 693.698 129.128 693.194 129.734C692.981 129.992 692.73 130.218 692.452 130.406C691.894 130.781 691.223 131 690.5 131C688.567 131 687 129.433 687 127.5C687 126.79 687.211 126.13 687.574 125.578C687.759 125.298 687.983 125.045 688.238 124.829ZM715 416C715 584.447 578.447 721 410 721C241.553 721 105 584.447 105 416C105 334.147 137.244 259.824 189.723 205.041C190.488 205.642 191.452 206 192.5 206C194.985 206 197 203.985 197 201.5C197 200.43 196.627 199.447 196.003 198.675C249.082 146.404 321.219 113.431 401.044 111.129C401.35 113.317 403.228 115 405.5 115C407.816 115 409.724 113.25 409.973 111H410C490.333 111 563.412 142.057 617.885 192.82C617.329 193.568 617 194.496 617 195.5C617 197.985 619.015 200 621.5 200C622.571 200 623.555 199.626 624.328 199.001C680.309 254.297 715 331.097 715 416ZM410 110C490.596 110 563.914 141.159 618.566 192.088C619.354 191.41 620.379 191 621.5 191C623.985 191 626 193.015 626 195.5C626 196.554 625.638 197.523 625.031 198.29C681.195 253.767 716 330.819 716 416C716 584.999 578.999 722 410 722C241.001 722 104 584.999 104 416C104 333.874 136.353 259.304 189.01 204.341C188.379 203.566 188 202.577 188 201.5C188 199.015 190.015 197 192.5 197C193.555 197 194.525 197.363 195.292 197.971C248.546 145.523 320.924 112.439 401.015 110.129C401.204 107.817 403.139 106 405.5 106C407.816 106 409.724 107.75 409.973 110H410ZM618 195.5C618 194.76 618.23 194.074 618.622 193.508C618.813 193.233 619.042 192.986 619.302 192.776C619.903 192.291 620.668 192 621.5 192C623.433 192 625 193.567 625 195.5C625 196.28 624.745 197.001 624.313 197.583C624.113 197.852 623.876 198.091 623.609 198.293C623.023 198.737 622.292 199 621.5 199C619.567 199 618 197.433 618 195.5ZM402.022 110.102C402.22 108.356 403.702 107 405.5 107C407.264 107 408.723 108.305 408.965 110.002C408.988 110.164 409 110.331 409 110.5C409 110.67 408.988 110.838 408.964 111.002C408.721 112.697 407.263 114 405.5 114C403.772 114 402.337 112.748 402.052 111.102C402.018 110.906 402 110.705 402 110.5C402 110.365 402.008 110.233 402.022 110.102ZM192.5 205C191.721 205 191.002 204.746 190.421 204.316C190.152 204.117 189.912 203.88 189.709 203.613C189.264 203.026 189 202.294 189 201.5C189 199.567 190.567 198 192.5 198C193.276 198 193.994 198.253 194.574 198.681C194.844 198.879 195.084 199.116 195.287 199.382C195.734 199.97 196 200.704 196 201.5C196 203.433 194.433 205 192.5 205ZM406 621C519.218 621 611 529.218 611 416C611 360.547 588.982 310.236 553.212 273.333C552.578 273.755 551.818 274 551 274C548.791 274 547 272.209 547 270C547 269.192 547.24 268.44 547.652 267.811C511.732 233.466 463.347 212.051 409.968 211.038C409.702 213.269 407.803 215 405.5 215C403.204 215 401.31 213.28 401.034 211.059C348.051 212.318 300.044 233.68 264.348 267.811C264.76 268.44 265 269.192 265 270C265 272.209 263.209 274 261 274C260.182 274 259.422 273.755 258.788 273.333C223.018 310.236 201 360.547 201 416C201 529.218 292.782 621 406 621ZM548.301 267.048C512.208 232.557 463.599 211.053 409.977 210.038C409.745 207.77 407.829 206 405.5 206C403.164 206 401.243 207.781 401.021 210.059C347.796 211.321 299.567 232.772 263.699 267.048C262.988 266.397 262.04 266 261 266C258.791 266 257 267.791 257 270C257 271.031 257.39 271.97 258.03 272.679C222.109 309.758 200 360.297 200 416C200 529.771 292.229 622 406 622C519.771 622 612 529.771 612 416C612 360.297 589.891 309.758 553.97 272.679C554.61 271.97 555 271.031 555 270C555 267.791 553.209 266 551 266C549.96 266 549.012 266.397 548.301 267.048ZM405.5 207C403.724 207 402.257 208.323 402.03 210.037C402.01 210.189 402 210.343 402 210.5C402 210.683 402.014 210.862 402.041 211.037C402.3 212.715 403.75 214 405.5 214C407.256 214 408.71 212.707 408.961 211.021C408.987 210.851 409 210.677 409 210.5C409 210.337 408.989 210.178 408.967 210.021C408.734 208.315 407.27 207 405.5 207ZM259.503 272.6C259.943 272.854 260.455 273 261 273C262.657 273 264 271.657 264 270C264 269.462 263.858 268.957 263.61 268.52C263.443 268.227 263.228 267.964 262.976 267.743C262.448 267.28 261.757 267 261 267C259.343 267 258 268.343 258 270C258 270.749 258.275 271.435 258.729 271.961C258.949 272.215 259.21 272.431 259.503 272.6ZM551 273C551.545 273 552.057 272.854 552.497 272.6C552.79 272.431 553.051 272.215 553.271 271.961C553.725 271.435 554 270.749 554 270C554 268.343 552.657 267 551 267C550.243 267 549.552 267.28 549.024 267.743C548.772 267.964 548.557 268.227 548.39 268.52C548.142 268.957 548 269.462 548 270C548 271.657 549.343 273 551 273Z" fill="white"></path>
    </g>
  </g>
  <defs>
    <linearGradient id="paint0_linear_235_14" x1="405.5" y1="0" x2="405.5" y2="378" gradientUnits="userSpaceOnUse">
      <stop stop-color="#D9D9D9" stop-opacity="0.6"></stop>
      <stop offset="0.354167" stop-color="#D9D9D9" stop-opacity="0.367547"></stop>
      <stop offset="0.625" stop-color="#D9D9D9" stop-opacity="0.225568"></stop>
      <stop offset="0.859375" stop-color="#D9D9D9" stop-opacity="0.09375"></stop>
      <stop offset="1" stop-color="#D9D9D9" stop-opacity="0"></stop>
    </linearGradient>
    <clipPath id="clip0_235_14">
      <rect width="811" height="378" fill="white"></rect>
    </clipPath>
  </defs>
</svg>
