<svg width="40" height="40" viewBox="0 0 40 40" fill="none" xmlns="http://www.w3.org/2000/svg">
<path d="M18 17V35L23 28H32L18 17Z" fill="white" stroke="white" stroke-linejoin="round"/>
<path d="M20 29C24.9706 29 29 24.9706 29 20C29 15.0294 24.9706 11 20 11C15.0294 11 11 15.0294 11 20C11 24.9706 15.0294 29 20 29Z" fill="white" fill-opacity="0.12"/>
<path opacity="0.4" d="M20 5V7" stroke="white" stroke-linecap="round" stroke-linejoin="round"/>
<path d="M27.5 7.01001L26.5 8.74201M32.99 12.5L31.258 13.5M35 20H33M8.742 26.5L7.01 27.5M7 20H5" stroke="white" stroke-linecap="round" stroke-linejoin="round"/>
<path opacity="0.4" d="M8.74177 13.5L7.00977 12.5M13.4998 8.74201L12.4998 7.01001" stroke="white" stroke-linecap="round" stroke-linejoin="round"/>
</svg>
