<svg width="32" height="32" viewBox="0 0 32 32" fill="none" xmlns="http://www.w3.org/2000/svg">
<path d="M28.8632 3.36321C28.8526 3.31192 28.8276 3.26473 28.791 3.22719C28.7545 3.18966 28.708 3.16334 28.657 3.15134C25.2582 2.32009 17.407 5.28196 13.1489 9.53696C12.39 10.2896 11.698 11.1069 11.0807 11.9795C9.7683 11.8607 8.4558 11.9607 7.3383 12.4482C4.18267 13.8357 3.26455 17.4595 3.0083 19.0151C2.99441 19.1003 3.00034 19.1876 3.02563 19.2702C3.05091 19.3528 3.09487 19.4284 3.1541 19.4913C3.21333 19.5541 3.28623 19.6025 3.36717 19.6326C3.4481 19.6628 3.53489 19.6739 3.6208 19.6651L8.68767 19.1088C8.69118 19.491 8.71413 19.8727 8.75642 20.2526C8.78287 20.5151 8.9 20.7602 9.08767 20.9457L11.0495 22.9076C11.2351 23.0954 11.4805 23.2125 11.7432 23.2388C12.1208 23.2809 12.5002 23.3039 12.8801 23.3076L12.3245 28.3701C12.3158 28.4559 12.327 28.5425 12.3571 28.6233C12.3873 28.7041 12.4356 28.7769 12.4984 28.8361C12.5612 28.8952 12.6367 28.9391 12.7191 28.9644C12.8016 28.9897 12.8887 28.9957 12.9739 28.982C14.5301 28.732 18.1614 27.8138 19.5407 24.6588C20.0282 23.5401 20.1282 22.2345 20.0157 20.9282C20.8909 20.3115 21.7105 19.6195 22.4651 18.8601C26.7389 14.6101 29.682 6.93134 28.8632 3.36321ZM18.6664 13.3545C18.2931 12.9813 18.0388 12.5057 17.9358 11.988C17.8328 11.4703 17.8856 10.9337 18.0876 10.446C18.2896 9.95832 18.6316 9.54148 19.0705 9.24821C19.5094 8.95494 20.0254 8.7984 20.5532 8.7984C21.0811 8.7984 21.5971 8.95494 22.036 9.24821C22.4749 9.54148 22.8169 9.95832 23.0189 10.446C23.2209 10.9337 23.2737 11.4703 23.1707 11.988C23.0677 12.5057 22.8134 12.9813 22.4401 13.3545C22.1925 13.6026 21.8984 13.7994 21.5746 13.9338C21.2509 14.0681 20.9038 14.1372 20.5532 14.1372C20.2027 14.1372 19.8556 14.0681 19.5319 13.9338C19.2081 13.7994 18.914 13.6026 18.6664 13.3545Z" fill="url(#paint0_linear_2019_19)" fill-opacity="0.24" stroke="white" stroke-linecap="round" stroke-linejoin="round"/>
<path d="M6.8525 22C6.22945 22.0765 5.6498 22.3589 5.20563 22.8025C4.10438 23.9075 4 28 4 28C4 28 8.095 27.8956 9.19687 26.7931C9.64224 26.3496 9.92517 25.769 10 25.145" fill="url(#paint1_linear_2019_19)" fill-opacity="0.24"/>
<path d="M6.8525 22C6.22945 22.0765 5.6498 22.3589 5.20563 22.8025C4.10438 23.9075 4 28 4 28C4 28 8.095 27.8956 9.19687 26.7931C9.64224 26.3496 9.92517 25.769 10 25.145" stroke="white" stroke-linecap="round" stroke-linejoin="round"/>
<defs>
<linearGradient id="paint0_linear_2019_19" x1="16.0006" y1="3.01123" x2="16.0006" y2="28.9892" gradientUnits="userSpaceOnUse">
<stop stop-color="white" stop-opacity="0"/>
<stop offset="1" stop-color="white"/>
</linearGradient>
<linearGradient id="paint1_linear_2019_19" x1="7" y1="22" x2="7" y2="28" gradientUnits="userSpaceOnUse">
<stop stop-color="white" stop-opacity="0"/>
<stop offset="1" stop-color="white"/>
</linearGradient>
</defs>
</svg>
