<svg width="26" height="24" viewBox="0 0 26 24" fill="none" xmlns="http://www.w3.org/2000/svg">
<path style="mix-blend-mode:screen" d="M9.83008 6.5C9.83008 6.32741 9.69017 6.1875 9.51758 6.1875C8.48204 6.1875 7.64258 5.34804 7.64258 4.3125C7.64258 4.13991 7.50267 4 7.33008 4C7.15749 4 7.01758 4.13991 7.01758 4.3125C7.01758 5.34804 6.17812 6.1875 5.14258 6.1875C4.96999 6.1875 4.83008 6.32741 4.83008 6.5C4.83008 6.67259 4.96999 6.8125 5.14258 6.8125C6.17812 6.8125 7.01758 7.65196 7.01758 8.6875C7.01758 8.86009 7.15749 9 7.33008 9C7.50267 9 7.64258 8.86009 7.64258 8.6875C7.64258 7.65196 8.48204 6.8125 9.51758 6.8125C9.69017 6.8125 9.83008 6.67259 9.83008 6.5Z" fill="url(#paint0_linear_2019_102)"/>
<path d="M9.83008 6.5C9.83008 6.32741 9.69017 6.1875 9.51758 6.1875C8.48204 6.1875 7.64258 5.34804 7.64258 4.3125C7.64258 4.13991 7.50267 4 7.33008 4C7.15749 4 7.01758 4.13991 7.01758 4.3125C7.01758 5.34804 6.17812 6.1875 5.14258 6.1875C4.96999 6.1875 4.83008 6.32741 4.83008 6.5C4.83008 6.67259 4.96999 6.8125 5.14258 6.8125C6.17812 6.8125 7.01758 7.65196 7.01758 8.6875C7.01758 8.86009 7.15749 9 7.33008 9C7.50267 9 7.64258 8.86009 7.64258 8.6875C7.64258 7.65196 8.48204 6.8125 9.51758 6.8125C9.69017 6.8125 9.83008 6.67259 9.83008 6.5Z" fill="white" fill-opacity="0.5"/>
<path style="mix-blend-mode:screen" d="M17.3301 6C17.3301 5.72386 17.1062 5.5 16.8301 5.5C16.554 5.5 16.3301 5.72386 16.3301 6C16.3301 8.48488 14.3153 10.5 11.8301 10.5C11.554 10.5 11.3301 10.7239 11.3301 11C11.3301 11.2761 11.554 11.5 11.8301 11.5C14.3154 11.5 16.3301 13.5142 16.3301 16C16.3301 16.2761 16.554 16.5 16.8301 16.5C17.1062 16.5 17.3301 16.2761 17.3301 16C17.3301 13.5141 19.3442 11.5 21.8301 11.5C22.1062 11.5 22.3301 11.2761 22.3301 11C22.3301 10.7239 22.1062 10.5 21.8301 10.5C19.3443 10.5 17.3301 8.48492 17.3301 6Z" fill="url(#paint1_linear_2019_102)"/>
<path d="M17.3301 6C17.3301 5.72386 17.1062 5.5 16.8301 5.5C16.554 5.5 16.3301 5.72386 16.3301 6C16.3301 8.48488 14.3153 10.5 11.8301 10.5C11.554 10.5 11.3301 10.7239 11.3301 11C11.3301 11.2761 11.554 11.5 11.8301 11.5C14.3154 11.5 16.3301 13.5142 16.3301 16C16.3301 16.2761 16.554 16.5 16.8301 16.5C17.1062 16.5 17.3301 16.2761 17.3301 16C17.3301 13.5141 19.3442 11.5 21.8301 11.5C22.1062 11.5 22.3301 11.2761 22.3301 11C22.3301 10.7239 22.1062 10.5 21.8301 10.5C19.3443 10.5 17.3301 8.48492 17.3301 6Z" fill="white" fill-opacity="0.5"/>
<path style="mix-blend-mode:screen" d="M8.33008 12.5C8.33008 12.2239 8.10622 12 7.83008 12C7.55394 12 7.33008 12.2239 7.33008 12.5C7.33008 14.1569 5.98694 15.5 4.33008 15.5C4.05394 15.5 3.83008 15.7239 3.83008 16C3.83008 16.2761 4.05394 16.5 4.33008 16.5C5.98694 16.5 7.33008 17.8431 7.33008 19.5C7.33008 19.7761 7.55394 20 7.83008 20C8.10622 20 8.33008 19.7761 8.33008 19.5C8.33008 17.8431 9.67322 16.5 11.3301 16.5C11.6062 16.5 11.8301 16.2761 11.8301 16C11.8301 15.7239 11.6062 15.5 11.3301 15.5C9.67322 15.5 8.33008 14.1569 8.33008 12.5Z" fill="url(#paint2_linear_2019_102)"/>
<path d="M8.33008 12.5C8.33008 12.2239 8.10622 12 7.83008 12C7.55394 12 7.33008 12.2239 7.33008 12.5C7.33008 14.1569 5.98694 15.5 4.33008 15.5C4.05394 15.5 3.83008 15.7239 3.83008 16C3.83008 16.2761 4.05394 16.5 4.33008 16.5C5.98694 16.5 7.33008 17.8431 7.33008 19.5C7.33008 19.7761 7.55394 20 7.83008 20C8.10622 20 8.33008 19.7761 8.33008 19.5C8.33008 17.8431 9.67322 16.5 11.3301 16.5C11.6062 16.5 11.8301 16.2761 11.8301 16C11.8301 15.7239 11.6062 15.5 11.3301 15.5C9.67322 15.5 8.33008 14.1569 8.33008 12.5Z" fill="white" fill-opacity="0.5"/>
<defs>
<linearGradient id="paint0_linear_2019_102" x1="3.83008" y1="20" x2="22.3301" y2="20.0025" gradientUnits="userSpaceOnUse">
<stop stop-color="#E59CFF"/>
<stop offset="0.5" stop-color="#BA9CFF"/>
<stop offset="1" stop-color="#9CB2FF"/>
</linearGradient>
<linearGradient id="paint1_linear_2019_102" x1="3.83006" y1="20" x2="22.3301" y2="20.0025" gradientUnits="userSpaceOnUse">
<stop stop-color="#E59CFF"/>
<stop offset="0.5" stop-color="#BA9CFF"/>
<stop offset="1" stop-color="#9CB2FF"/>
</linearGradient>
<linearGradient id="paint2_linear_2019_102" x1="3.83008" y1="20" x2="22.3301" y2="20.0025" gradientUnits="userSpaceOnUse">
<stop stop-color="#E59CFF"/>
<stop offset="0.5" stop-color="#BA9CFF"/>
<stop offset="1" stop-color="#9CB2FF"/>
</linearGradient>
</defs>
</svg>
