<svg width="1297" height="1160" viewBox="0 0 1297 1160" fill="none" xmlns="http://www.w3.org/2000/svg">
<path fill-rule="evenodd" clip-rule="evenodd" d="M696.095 41.0201C706.34 48.0668 716.095 56.1463 725.209 65.2589L1095.71 435.755C1176.1 516.141 1176.1 646.473 1095.71 726.856L725.209 1097.36C718.068 1104.5 710.528 1111 702.67 1116.88C750.507 1121.03 799.779 1104.79 836.385 1068.18L1206.89 697.688C1272.65 631.917 1272.65 525.282 1206.89 459.511L836.385 89.0151C798.096 50.7251 745.954 34.7267 696.095 41.0201ZM644.655 15.4529C573.085 -8.29651 491.06 8.30544 434.107 65.2589L63.6109 435.755C-16.7752 516.141 -16.7752 646.473 63.6109 726.856L434.107 1097.36C493.1 1156.35 578.993 1172.04 652.304 1144.46C723.87 1168.2 805.899 1151.6 862.85 1094.65L1233.35 724.152C1313.74 643.765 1313.74 513.434 1233.35 433.047L862.85 62.5514C803.857 3.55792 717.965 -12.1416 644.655 15.4529Z" fill="white"/>
</svg>
